<?xml version="1.0" encoding="utf-8"?>
<!-- Generator: Adobe Illustrator 21.1.0, SVG Export Plug-In . SVG Version: 6.00 Build 0)  -->
<svg version="1.1" id="Layer_1" xmlns="http://www.w3.org/2000/svg" xmlns:xlink="http://www.w3.org/1999/xlink" x="0px" y="0px"
	 viewBox="0 0 511 511" style="enable-background:new 0 0 511 511;" xml:space="preserve">
<path d="M256,319c-35.3,0-64-28.7-64-64s28.7-64,64-64s64,28.7,64,64S291.3,319,256,319z M256,223c-17.6,0-32,14.4-32,32
	s14.4,32,32,32s32-14.4,32-32S273.6,223,256,223z"/>
<path d="M256,383c-75.9,0-146.9-44.9-189.9-120.1c-2.8-4.9-2.8-11,0-15.9c43-75.1,114-120,189.9-120s146.9,44.9,189.9,120.1
	c2.8,4.9,2.8,11,0,15.9C402.9,338.1,331.9,383,256,383L256,383z M98.6,255c37.5,60.3,95.7,96,157.4,96s119.9-35.7,157.4-96
	c-37.5-60.3-95.7-96-157.4-96S136.1,194.7,98.6,255L98.6,255z"/>
</svg>
